<?xml version="1.0" encoding="UTF-8"?>
<svg version="1.1" xmlns="http://www.w3.org/2000/svg" width="512" height="383">
<path d="M0 0 C7.0654102 3.37668658 12.74100538 8.40988068 18.38427734 13.73730469 C23.92497112 18.94644335 29.84204944 23.545464 36 28 C36.54398437 28.39509766 37.08796875 28.79019531 37.6484375 29.19726562 C81.93199295 60.9546041 140.74286499 80.90252125 195.390625 81.203125 C196.2497348 81.21004868 197.1088446 81.21697235 197.99398804 81.22410583 C200.74603919 81.24126791 203.49789788 81.24769114 206.25 81.25 C207.65895538 81.25200912 207.65895538 81.25200912 209.09637451 81.25405884 C222.94351868 81.24977125 236.38461261 80.72795973 250 78 C250.72670898 77.85594727 251.45341797 77.71189453 252.20214844 77.56347656 C253.62445401 77.28055516 255.04673663 76.99751837 256.46899414 76.71435547 C275.6398774 72.92119838 275.6398774 72.92119838 282.859375 76.36328125 C286.2109586 80.49160046 285.69995289 84.46146297 285.5625 89.625 C285.54590332 90.68678467 285.52930664 91.74856934 285.51220703 92.8425293 C284.90766255 114.22554959 280.04316772 135.29149256 275 156 C274.70609375 157.2070459 274.4121875 158.4140918 274.109375 159.65771484 C260.08741018 216.37685963 235.94415529 271.88310958 197 316 C196.20722656 316.91523438 195.41445313 317.83046875 194.59765625 318.7734375 C190.62940657 323.29113713 186.56207314 327.35370082 181.96484375 331.22265625 C179.12759978 333.7891493 176.70079036 336.66155439 174.25 339.59375 C153.30916026 361.98881472 120.46747117 381.70705645 89.23974609 383.17700195 C87.83440692 383.2032691 86.42894316 383.22338246 85.0234375 383.23828125 C84.26449692 383.2480751 83.50555634 383.25786896 82.72361755 383.26795959 C51.37107205 383.58931804 51.37107205 383.58931804 36 379 C34.86473877 378.67854004 34.86473877 378.67854004 33.70654297 378.35058594 C1.99914899 369.24208514 -23.16159207 349.8608478 -42 323 C-43.87365234 323.433125 -43.87365234 323.433125 -45.78515625 323.875 C-76.40213297 330.55815006 -104.51057115 326.77001006 -131.21484375 310.16894531 C-135.80865912 307.16085068 -139.91429056 303.65303219 -144 300 C-144.92425781 299.20722656 -145.84851563 298.41445313 -146.80078125 297.59765625 C-153.29321178 291.91341209 -158.70037189 285.79137528 -164 279 C-164.65484375 278.21109375 -165.3096875 277.4221875 -165.984375 276.609375 C-201.89012132 233.23523345 -226.96793551 164.36869605 -226.46875 107.8359375 C-225.94645368 104.67604479 -225.34193288 103.18225564 -223 101 C-221.68 101 -220.36 101 -219 101 C-218.938125 100.236875 -218.87625 99.47375 -218.8125 98.6875 C-218 96 -218 96 -215.80859375 94.32421875 C-208.1643974 90.72007054 -197.26823255 94.35333252 -189.17675781 95.89501953 C-145.29928146 104.21806121 -98.17811891 93.53906539 -58.0625 75.5625 C-57.10351807 75.15692871 -56.14453613 74.75135742 -55.15649414 74.33349609 C-50.37097551 72.07416364 -47.64507634 70.28945229 -45.6015625 65.3046875 C-45.04079068 63.54480977 -44.50710603 61.77608506 -44 60 C-43.40148081 58.28959562 -42.79334568 56.58252667 -42.17578125 54.87890625 C-41.87397949 54.01515381 -41.57217773 53.15140137 -41.26123047 52.26147461 C-38.29885223 43.83401927 -35.11363484 35.55315095 -31.375 27.4375 C-31.02735596 26.65898682 -30.67971191 25.88047363 -30.3215332 25.07836914 C-27.95242918 20.08906808 -25.5817539 17.132669 -21 14 C-20.278125 13.83242187 -19.55625 13.66484375 -18.8125 13.4921875 C-16.75101451 13.13727308 -16.75101451 13.13727308 -15.4375 10.8203125 C-14.963125 9.93085938 -14.48875 9.04140625 -14 8.125 C-10.5617811 1.71571151 -7.57224308 -1.20194335 0 0 Z M-10 143 C-9.14150421 145.28869539 -9.14150421 145.28869539 -6.37413025 145.96182251 C-4.6187368 146.46146011 -4.6187368 146.46146011 -2.82788086 146.97119141 C-2.18399918 147.1568013 -1.54011749 147.34241119 -0.87672424 147.53364563 C1.25849708 148.14713489 3.39672923 148.74935162 5.53515625 149.3515625 C7.01366022 149.77400025 8.49196515 150.19713521 9.97007751 150.62094116 C13.86600596 151.73595089 17.76457498 152.84143885 21.66375732 153.94500732 C25.64009728 155.07221537 29.6138837 156.20834984 33.58789062 157.34375 C41.38944698 159.57127558 49.19381366 161.78875485 57 164 C57.33 163.34 57.66 162.68 58 162 C49.8573811 149.69944804 41.01285986 140.01742618 26.12109375 136.46875 C13.01106562 134.49978457 1.30679989 135.87180007 -10 143 Z M-111.93115234 158.25341797 C-112.98249359 158.52725311 -114.03383484 158.80108826 -115.11703491 159.08322144 C-116.83414169 159.53315964 -116.83414169 159.53315964 -118.5859375 159.9921875 C-119.75379791 160.29818878 -120.92165833 160.60419006 -122.12490845 160.91946411 C-124.60170675 161.56938826 -127.0782936 162.22011868 -129.5546875 162.87158203 C-132.09733426 163.53941678 -134.64062878 164.20479022 -137.18457031 164.86767578 C-140.84064969 165.82038304 -144.49472808 166.78043669 -148.1484375 167.7421875 C-149.28912689 168.03809784 -150.42981628 168.33400818 -151.60507202 168.6388855 C-153.19154037 169.0590947 -153.19154037 169.0590947 -154.81005859 169.48779297 C-155.74191986 169.73206024 -156.67378113 169.97632751 -157.63388062 170.22799683 C-160.22614086 170.95629898 -160.22614086 170.95629898 -163 173 C-155.44692042 179.94805254 -146.85599659 183.90986049 -136.5 184.5 C-128.71250766 184.09695049 -118.62288609 181.48574252 -113 176 C-109.30229761 169.99780536 -106.32317432 164.109835 -106 157 C-108.00574888 157 -110.00732257 157.75155567 -111.93115234 158.25341797 Z M131 186 C134.10101877 188.06734585 136.51134237 188.86684361 140.07617188 189.89526367 C141.32756958 190.25871384 142.57896729 190.622164 143.86828613 190.99662781 C145.23500225 191.38744278 146.60182622 191.77788074 147.96875 192.16796875 C149.36981254 192.57085633 150.77081267 192.97396098 152.17175293 193.37727356 C155.10614652 194.22057762 158.04169465 195.05971429 160.97802734 195.89624023 C164.74364797 196.9696157 168.50549797 198.0556066 172.26650238 199.14503002 C175.15753401 199.98051898 178.05077694 200.8081272 180.94471741 201.63347816 C182.33298756 202.03068462 183.72047784 202.43062723 185.10716248 202.83333397 C187.04370152 203.39469873 188.98369703 203.94409827 190.92382812 204.49291992 C192.02730591 204.80887619 193.13078369 205.12483246 194.2677002 205.45036316 C197.07602665 206.25082951 197.07602665 206.25082951 200 205 C191.44206299 191.94914606 182.08145394 183.11171112 166.875 178.5625 C153.88946892 176.67750355 142.0934956 178.77632844 131 186 Z M-96.25 240.98828125 C-103.43906347 248.44412637 -109.51272941 258.72455856 -111 269 C-104.91196185 267.31219353 -98.82481383 265.62120625 -92.73828125 263.92797852 C-90.66654615 263.35204526 -88.59460653 262.77684717 -86.52246094 262.20239258 C-83.54829005 261.3777361 -80.57485875 260.55045986 -77.6015625 259.72265625 C-76.67131256 259.46533218 -75.74106262 259.20800812 -74.78262329 258.94288635 C-73.92188202 258.70271286 -73.06114075 258.46253937 -72.17431641 258.21508789 C-71.41486725 258.00412979 -70.65541809 257.79317169 -69.87295532 257.57582092 C-67.93587779 257.0365333 -67.93587779 257.0365333 -66 256 C-66.99 246.1 -67.98 236.2 -69 226 C-78.17926998 226 -89.74734128 235.24200818 -96.25 240.98828125 Z M13 243 C14.42588623 247.43969122 16.8455178 250.4211712 20 253.75 C20.49129395 254.27368164 20.98258789 254.79736328 21.48876953 255.33691406 C41.70373784 276.63703174 69.21947724 289.59217467 98.74487305 290.40454102 C115.73294821 290.58341865 129.72114391 287.26411542 145 280 C142.33800525 277.33800525 139.46495635 276.87007052 135.921875 275.953125 C135.1597168 275.74925674 134.39755859 275.54538849 133.61230469 275.33534241 C131.90774021 274.8795323 130.2024111 274.42657517 128.49645996 273.97598267 C123.61824513 272.68650477 118.74630265 271.37391058 113.875 270.05859375 C112.76695007 269.75950607 111.65890015 269.4604184 110.51727295 269.15226746 C99.98916147 266.29572814 89.49375358 263.32747732 79 260.34765625 C77.23920257 259.84813428 75.47839933 259.34863279 73.71759033 258.84915161 C65.74626509 256.58703395 57.77618259 254.32069107 49.80895233 252.04419041 C46.43982446 251.08284622 43.06935197 250.12628193 39.69854736 249.17083549 C38.11541106 248.72090884 36.5328743 248.26886648 34.95098877 247.81456184 C32.75886182 247.18517786 30.56477352 246.56312399 28.37011719 245.94262695 C27.13493347 245.59021439 25.89974976 245.23780182 24.62713623 244.87471008 C20.73139735 243.93522453 16.98103164 243.42582807 13 243 Z " fill="#1D8C22" transform="translate(227,0)"/>
<path d="M0 0 C0.89247437 0.19577637 0.89247437 0.19577637 1.80297852 0.39550781 C40.22866725 8.71360781 80.99764231 13.81445714 120 6 C120.72670898 5.85594727 121.45341797 5.71189453 122.20214844 5.56347656 C123.62445401 5.28055516 125.04673663 4.99751837 126.46899414 4.71435547 C145.6398774 0.92119838 145.6398774 0.92119838 152.859375 4.36328125 C156.2109586 8.49160046 155.69995289 12.46146297 155.5625 17.625 C155.54590332 18.68678467 155.52930664 19.74856934 155.51220703 20.8425293 C154.90766255 42.22554959 150.04316772 63.29149256 145 84 C144.70609375 85.2070459 144.4121875 86.4140918 144.109375 87.65771484 C130.08741018 144.37685963 105.94415529 199.88310958 67 244 C66.20722656 244.91523438 65.41445313 245.83046875 64.59765625 246.7734375 C56.92006695 255.51407763 48.47732208 262.29470098 39 269 C38.01128906 269.72316406 37.02257812 270.44632812 36.00390625 271.19140625 C6.96400584 292.0377767 -28.05652913 301.54531619 -63.71582031 296.01586914 C-72.22062309 294.51958461 -72.22062309 294.51958461 -76 292 C-73.1712524 279.60342965 -70.03255138 267.3013456 -66.79101562 255.00683594 C-65.73423571 250.98976758 -64.6884333 246.9698751 -63.64257812 242.94995117 C-61.12923824 233.29069996 -58.58876018 223.63932468 -56 214 C-55.1234375 214.2165625 -54.246875 214.433125 -53.34375 214.65625 C-27.88464268 220.24483453 -0.37232693 217.80546264 22.08496094 203.68945312 C28.99219477 199.21070908 28.99219477 199.21070908 34 193 C33.00097656 192.87238281 32.00195312 192.74476563 30.97265625 192.61328125 C20.88816184 191.16757542 10.9195712 188.0370946 1.15234375 185.1953125 C-2.18214171 184.22808304 -5.52533489 183.29465115 -8.87109375 182.3671875 C-20.64566812 179.10193933 -32.37312709 175.76010644 -44 172 C-42.93459666 165.50945071 -41.61673648 159.09160352 -40.125 152.6875 C-39.97579102 152.03789307 -39.82658203 151.38828613 -39.67285156 150.71899414 C-38.61774812 146.25638128 -37.39418126 141.85738036 -36.1171875 137.453125 C-33.88201172 129.70164336 -31.92590315 121.89494498 -30 114.0625 C-27.72426201 104.83176003 -25.39158219 95.62273506 -22.92431641 86.44116211 C-21.65532854 81.71681345 -20.41942759 76.98412173 -19.1875 72.25 C-18.93742187 71.29029297 -18.68734375 70.33058594 -18.4296875 69.34179688 C-16.44723906 61.7293902 -14.47335422 54.11476818 -12.5 46.5 C-11.91146994 44.23046574 -11.32292833 41.96093447 -10.734375 39.69140625 C-9.59663551 35.30398242 -8.46159905 30.91587124 -7.328125 26.52734375 C-6.80216677 24.49737421 -6.27612893 22.4674253 -5.75 20.4375 C-5.51603516 19.52871094 -5.28207031 18.61992188 -5.04101562 17.68359375 C-3.49883951 11.74466909 -1.8026873 5.86502583 0 0 Z M1 114 C4.10101877 116.06734585 6.51134237 116.86684361 10.07617188 117.89526367 C11.32756958 118.25871384 12.57896729 118.622164 13.86828613 118.99662781 C15.23500225 119.38744278 16.60182622 119.77788074 17.96875 120.16796875 C19.36981254 120.57085633 20.77081267 120.97396098 22.17175293 121.37727356 C25.10614652 122.22057762 28.04169465 123.05971429 30.97802734 123.89624023 C34.74364797 124.9696157 38.50549797 126.0556066 42.26650238 127.14503002 C45.15753401 127.98051898 48.05077694 128.8081272 50.94471741 129.63347816 C52.33298756 130.03068462 53.72047784 130.43062723 55.10716248 130.83333397 C57.04370152 131.39469873 58.98369703 131.94409827 60.92382812 132.49291992 C62.02730591 132.80887619 63.13078369 133.12483246 64.2677002 133.45036316 C67.07602665 134.25082951 67.07602665 134.25082951 70 133 C61.44206299 119.94914606 52.08145394 111.11171112 36.875 106.5625 C23.88946892 104.67750355 12.0934956 106.77632844 1 114 Z " fill="#2DAC33" transform="translate(357,72)"/>
<path d="M0 0 C1.33755997 4.01267991 0.06145644 6.72415561 -1.18359375 10.59375 C-3.91705235 19.47851497 -6.07970618 28.42180651 -8.0625 37.5 C-8.23364319 38.27891602 -8.40478638 39.05783203 -8.58111572 39.86035156 C-16.74768503 77.16501983 -18.34747296 113.94122781 -19 152 C-20.21091309 152.45310547 -21.42182617 152.90621094 -22.66943359 153.37304688 C-24.28757351 153.98791658 -25.90556706 154.60317157 -27.5234375 155.21875 C-28.31806396 155.51491211 -29.11269043 155.81107422 -29.93139648 156.11621094 C-42.13950708 160.78714021 -55.36008483 168.44482294 -62 180 C-63.12355017 181.70928722 -64.24861303 183.41758084 -65.375 185.125 C-71.36456276 193.96429425 -71.36456276 193.96429425 -74 204 C-72.81148438 203.65743164 -71.62296875 203.31486328 -70.3984375 202.96191406 C-65.91128853 201.66938521 -61.42307913 200.38057125 -56.93457031 199.09277344 C-55.00655306 198.53906998 -53.07880971 197.98441171 -51.15136719 197.42871094 C-18.44020758 188 -18.44020758 188 -13 188 C-12.83508057 188.58676514 -12.67016113 189.17353027 -12.50024414 189.77807617 C-6.85287348 209.63931384 0.12968095 228.37645822 11 246 C1.58578149 255.41421851 -18.81621695 255.18385973 -31 255.25 C-64.08402449 255.04523145 -89.00269253 240.62102898 -111.81494141 217.6027832 C-143.7287549 184.53077784 -163.0421732 138.42658642 -173.46435547 94.26220703 C-173.84115927 92.67083784 -174.22349873 91.08077424 -174.60986328 89.49169922 C-177.86708279 76.08005469 -180.43128529 62.71648414 -182 49 C-182.08797852 48.23913086 -182.17595703 47.47826172 -182.26660156 46.69433594 C-183.51507373 35.29634103 -183.51507373 35.29634103 -182.0703125 31.66015625 C-178.02231456 28.41412016 -173.14415336 28.7792349 -168.1640625 29.29199219 C-165.09460527 29.75623752 -162.0501828 30.29783509 -159 30.875 C-109.17570095 39.92828742 -59.16444744 29.86415855 -14.28735352 7.12719727 C-12.22745502 6.11208879 -10.15847039 5.17712882 -8.04296875 4.28515625 C-5.17218335 3.07271928 -2.62535222 1.67067868 0 0 Z M-75.93115234 94.25341797 C-76.98249359 94.52725311 -78.03383484 94.80108826 -79.11703491 95.08322144 C-80.83414169 95.53315964 -80.83414169 95.53315964 -82.5859375 95.9921875 C-83.75379791 96.29818878 -84.92165833 96.60419006 -86.12490845 96.91946411 C-88.60170675 97.56938826 -91.0782936 98.22011868 -93.5546875 98.87158203 C-96.09733426 99.53941678 -98.64062878 100.20479022 -101.18457031 100.86767578 C-104.84064969 101.82038304 -108.49472808 102.78043669 -112.1484375 103.7421875 C-113.28912689 104.03809784 -114.42981628 104.33400818 -115.60507202 104.6388855 C-117.19154037 105.0590947 -117.19154037 105.0590947 -118.81005859 105.48779297 C-119.74191986 105.73206024 -120.67378113 105.97632751 -121.63388062 106.22799683 C-124.22614086 106.95629898 -124.22614086 106.95629898 -127 109 C-119.44692042 115.94805254 -110.85599659 119.90986049 -100.5 120.5 C-92.71250766 120.09695049 -82.62288609 117.48574252 -77 112 C-73.30229761 105.99780536 -70.32317432 100.109835 -70 93 C-72.00574888 93 -74.00732257 93.75155567 -75.93115234 94.25341797 Z " fill="#D65348" transform="translate(191,64)"/>
<path d="M0 0 C0.06469482 0.69222656 0.12938965 1.38445312 0.19604492 2.09765625 C1.78638029 18.67536676 4.19389377 34.78622952 8 51 C8.18208008 51.77972168 8.36416016 52.55944336 8.55175781 53.36279297 C9.62993041 57.92827524 10.79526747 62.46600664 12 67 C12.25910156 68.03511719 12.51820312 69.07023437 12.78515625 70.13671875 C23.3926813 110.24796464 43.14096343 150.8927352 72 181 C72.82757813 181.89074219 73.65515625 182.78148437 74.5078125 183.69921875 C92.91190672 202.93498487 117.62026815 216.44480867 144.53125 217.203125 C159.98700808 217.40396617 174.43854326 216.74598909 188.8984375 210.76953125 C191 210 191 210 194 210 C195.7265625 212.0546875 195.7265625 212.0546875 197.625 214.875 C216.06984658 241.00519932 244.46680441 256.27586578 275 264 C275.7002832 264.17934082 276.40056641 264.35868164 277.12207031 264.54345703 C303.83429654 271.07556286 334.12679292 267.53003388 359 256 C360.01900391 255.52868652 360.01900391 255.52868652 361.05859375 255.04785156 C370.44747218 250.59890137 378.79312316 245.29629566 386.91210938 238.81005859 C391.71464177 235 391.71464177 235 395 235 C375.63509333 259.81128666 341.90118982 277.61076977 311 282 C308.33285983 282.12554711 305.69115217 282.21000265 303.0234375 282.23828125 C302.26449692 282.2480751 301.50555634 282.25786896 300.72361755 282.26795959 C269.37107205 282.58931804 269.37107205 282.58931804 254 278 C252.86473877 277.67854004 252.86473877 277.67854004 251.70654297 277.35058594 C219.99914899 268.24208514 194.83840793 248.8608478 176 222 C174.12634766 222.433125 174.12634766 222.433125 172.21484375 222.875 C141.59786703 229.55815006 113.48942885 225.77001006 86.78515625 209.16894531 C82.19134088 206.16085068 78.08570944 202.65303219 74 199 C73.07574219 198.20722656 72.15148437 197.41445313 71.19921875 196.59765625 C64.70678822 190.91341209 59.29962811 184.79137528 54 178 C53.01773438 176.81664062 53.01773438 176.81664062 52.015625 175.609375 C16.10987868 132.23523345 -8.96793551 63.36869605 -8.46875 6.8359375 C-7.51406662 1.06010303 -5.63361206 -0.23607737 0 0 Z " fill="#2E4551" transform="translate(9,101)"/>
<path d="M0 0 C8.25959755 0.97369239 15.96664716 3.09252107 23.87792969 5.54541016 C30.37672205 7.54790311 36.91070751 9.32102682 43.5 11 C51.49913286 13.04718721 59.41561864 15.26976593 67.31176758 17.68188477 C77.09162235 20.66020323 86.94426104 23.37413828 96.79443359 26.10888672 C102.03179972 27.56481866 107.26570693 29.03306698 112.5 30.5 C114.56640473 31.07813043 116.63281099 31.65625541 118.69921875 32.234375 C123.03645323 33.44855619 127.37215607 34.66804836 131.70703125 35.890625 C132.81304687 36.20193359 133.9190625 36.51324219 135.05859375 36.83398438 C137.14883612 37.42241395 139.23871227 38.01214687 141.328125 38.60351562 C148.18804797 40.53258121 155.07846161 42.30567701 162 44 C160.16573498 48.05438212 157.87466642 49.98347154 154.3125 52.6875 C153.29800781 53.47511719 152.28351563 54.26273437 151.23828125 55.07421875 C146.55154914 57.86138272 142.77155856 58.31476467 137.40405273 57.36108398 C136.0766972 57.003485 134.753367 56.63073425 133.43359375 56.24609375 C132.67860092 56.03807129 131.92360809 55.83004883 131.14573669 55.61572266 C128.57245667 54.9028137 126.0052224 54.17015422 123.4375 53.4375 C121.57794485 52.9175978 119.71806877 52.39884241 117.85791016 51.88110352 C113.52139314 50.67045948 109.18789254 49.44959147 104.85595703 48.22265625 C99.05679828 46.58025659 93.25544293 44.94587024 87.45263672 43.31640625 C86.61483956 43.08114196 85.77704241 42.84587767 84.91385746 42.60348415 C83.18337914 42.11755143 81.45290053 41.63161973 79.72242165 41.14568901 C65.77461477 37.2280262 51.82916987 33.30195206 37.88798714 29.36077881 C36.31291178 28.91557568 34.73776307 28.47063194 33.16253471 28.02597046 C29.64266385 27.03218017 26.12394321 26.03487415 22.6083374 25.02609253 C20.36370483 24.38779282 18.11451691 23.76504062 15.85894775 23.16653442 C14.9646405 22.92216644 14.07033325 22.67779846 13.14892578 22.42602539 C12.4029715 22.23045547 11.65701721 22.03488556 10.88845825 21.83338928 C6.15339898 19.74377589 4.64785062 14.58648567 2.81640625 10.1015625 C0 2.67560554 0 2.67560554 0 0 Z " fill="#2C4551" transform="translate(229,221)"/>
<path d="M0 0 C1.33755997 4.01267991 0.06145644 6.72415561 -1.18359375 10.59375 C-3.91705235 19.47851497 -6.07970618 28.42180651 -8.0625 37.5 C-8.31921478 38.66837402 -8.31921478 38.66837402 -8.58111572 39.86035156 C-16.74768503 77.16501983 -18.34747296 113.94122781 -19 152 C-23.62 153.65 -28.24 155.3 -33 157 C-33.68087868 113.65072424 -29.11510638 72.63486031 -17.94042969 30.64160156 C-17.07234949 27.28015704 -16.29020554 23.91258644 -15.5390625 20.5234375 C-12.47928775 7.36849505 -12.47928775 7.36849505 -8.18359375 3.39453125 C-5.45679828 1.87267989 -3.01322689 0.78815721 0 0 Z " fill="#BE4B40" transform="translate(191,64)"/>
<path d="M0 0 C10.4904369 8.43423511 18.57848743 22.24027173 20.15234375 35.73046875 C19.6796875 37.96484375 19.6796875 37.96484375 19.15234375 39.73046875 C2.25168038 36.8001118 2.25168038 36.8001118 -2.609375 32.0078125 C-4.49872534 28.97642078 -6.17560833 25.88558619 -7.84765625 22.73046875 C-14.70879952 13.64367498 -26.62146802 7.36007672 -37.84765625 5.73046875 C-49.87762771 4.63048587 -60.37012948 7.97810111 -70.84765625 13.73046875 C-66.45499301 3.34781018 -55.41357628 -3.63450563 -45.34765625 -7.76953125 C-29.93296667 -13.47085479 -13.1222361 -9.34008017 0 0 Z " fill="#2D4651" transform="translate(427.84765625,173.26953125)"/>
<path d="M0 0 C10.79774641 8.58326424 18.62352268 22.20181072 20.45703125 35.953125 C20.45703125 37.273125 20.45703125 38.593125 20.45703125 39.953125 C18.45573158 39.62768569 16.45603798 39.29236418 14.45703125 38.953125 C13.34585938 38.77136719 12.2346875 38.58960938 11.08984375 38.40234375 C1.74748652 36.37365816 1.74748652 36.37365816 -1.984375 32.265625 C-3.31471665 30.18289835 -4.59666982 28.06846119 -5.828125 25.92578125 C-10.98888947 16.97967246 -19.9593648 11.19770645 -29.66796875 8.078125 C-41.74283297 5.20071055 -54.73586107 5.83820268 -65.54296875 12.203125 C-66.53296875 12.780625 -67.52296875 13.358125 -68.54296875 13.953125 C-69.20296875 13.623125 -69.86296875 13.293125 -70.54296875 12.953125 C-52.64523948 -9.33014058 -24.69615991 -17.21137938 0 0 Z " fill="#2C4551" transform="translate(285.54296875,130.046875)"/>
<path d="M0 0 C0.16491943 0.58676514 0.32983887 1.17353027 0.49975586 1.77807617 C6.14712652 21.63931384 13.12968095 40.37645822 24 58 C21.28390082 60.71609918 18.13404955 61.46920222 14.5625 62.625 C13.5405957 62.96917969 13.5405957 62.96917969 12.49804688 63.3203125 C9.55017182 64.29042613 7.12333158 65 4 65 C-5.9183044 45.3208246 -12.27428182 25.4943956 -17 4 C-14.73050898 3.32844651 -12.4596039 2.6626037 -10.1875 2 C-8.92292969 1.62875 -7.65835938 1.2575 -6.35546875 0.875 C-3 0 -3 0 0 0 Z " fill="#BE4B40" transform="translate(178,252)"/>
<path d="M0 0 C1.65 11.88 3.3 23.76 5 36 C-8 40 -8 40 -12 40 C-14.19695909 30.42753541 -15.05819188 20.7587352 -16 11 C-23.90296449 13.91456847 -30.69240255 17.50440703 -37.6015625 22.328125 C-40 24 -40 24 -42 25 C-38.56329353 16.36918033 -27.06245731 9.95496217 -19 6 C-4.98242531 0 -4.98242531 0 0 0 Z " fill="#2F4551" transform="translate(173,216)"/>
<path d="M0 0 C-0.87266142 10.03560635 -4.91193168 18.78036661 -12 26 C-12.99 26.33 -13.98 26.66 -15 27 C-14.57074219 25.93845703 -14.57074219 25.93845703 -14.1328125 24.85546875 C-13.00818789 22.02063914 -11.92912659 19.17425849 -10.875 16.3125 C-10.52179688 15.35988281 -10.16859375 14.40726563 -9.8046875 13.42578125 C-8.89504938 11.10958062 -8.89504938 11.10958062 -9 9 C-9.97932747 9.2630896 -9.97932747 9.2630896 -10.97843933 9.53149414 C-17.77343816 11.35561722 -24.57071653 13.17104753 -31.36938477 14.98144531 C-33.90643882 15.65825262 -36.44290306 16.33727488 -38.97875977 17.01855469 C-42.6236337 17.99736992 -46.2705538 18.96820261 -49.91796875 19.9375 C-51.05147263 20.24373291 -52.1849765 20.54996582 -53.35282898 20.86547852 C-54.41355118 21.14576904 -55.47427338 21.42605957 -56.56713867 21.71484375 C-57.49757492 21.96355225 -58.42801117 22.21226074 -59.38664246 22.46850586 C-62.02793036 23.00568036 -64.31351291 23.19644163 -67 23 C-68.8125 21.625 -68.8125 21.625 -70 20 C-70 19.34 -70 18.68 -70 18 C-68.73027344 17.68546875 -67.46054688 17.3709375 -66.15234375 17.046875 C-57.02899085 14.78051334 -47.92054767 12.47803894 -38.84375 10.03125 C-36.01260465 9.27167442 -33.17993438 8.52152651 -30.34375 7.78125 C-21.72334482 5.53053869 -13.13548164 3.22202667 -4.58984375 0.69921875 C-2 0 -2 0 0 0 Z " fill="#334551" transform="translate(129,149)"/>
<path d="M0 0 C-0.64047128 3.72419062 -1.68426323 7.03214568 -3.07421875 10.54296875 C-3.49123047 11.60862061 -3.90824219 12.67427246 -4.33789062 13.7722168 C-4.78326172 14.89926025 -5.22863281 16.02630371 -5.6875 17.1875 C-8.52228088 24.36691244 -11.22043597 31.48041625 -13.33984375 38.90429688 C-15.49928277 46.37288924 -17.79859404 51.07842687 -24.73046875 55.19921875 C-27 56 -27 56 -30 55 C-25.83994495 42.40241995 -21.64954916 29.85302425 -16.1875 17.75 C-15.6471814 16.54778809 -15.6471814 16.54778809 -15.09594727 15.32128906 C-8.00269697 0 -8.00269697 0 0 0 Z " fill="#2D4551" transform="translate(210,14)"/>
</svg>
