<?xml version="1.0" encoding="UTF-8"?>
<svg version="1.1" xmlns="http://www.w3.org/2000/svg" width="960" height="1003">
<path d="M0 0 C316.8 0 633.6 0 960 0 C960 330.99 960 661.98 960 1003 C643.2 1003 326.4 1003 0 1003 C0 672.01 0 341.02 0 0 Z " fill="#43B02A" transform="translate(0,0)"/>
<path d="M0 0 C316.8 0 633.6 0 960 0 C960 330.99 960 661.98 960 1003 C957.69 1003 955.38 1003 953 1003 C953.64970616 1002.4628743 954.29941232 1001.92574859 954.96880654 1001.37234635 C957.53015874 998.38079746 957.49974275 996.93964644 957.49909532 993.04245842 C957.50859694 991.81271024 957.51809857 990.58296206 957.52788812 989.31594878 C957.51820268 987.94642851 957.50815244 986.57691078 957.49777794 985.20739555 C957.50134213 983.75030901 957.50666063 982.29322589 957.51357967 980.83615142 C957.52756472 976.80900909 957.51645922 972.78225798 957.50146749 968.75513347 C957.48956371 964.3827902 957.50077564 960.01049814 957.50910914 955.6381551 C957.52050434 947.96747701 957.51695093 940.29691711 957.5037384 932.62624359 C957.48414551 921.22007023 957.4873569 909.81398382 957.495239 898.40780046 C957.50780609 879.22227677 957.501427 860.03680217 957.48405075 840.85128403 C957.46684229 821.84728414 957.45700995 802.84330629 957.45738602 783.83929825 C957.45740131 782.658696 957.4574166 781.47809375 957.45743235 780.26171568 C957.45751417 775.46970431 957.45764538 770.67769295 957.45784398 765.88568159 C957.45965742 720.90352027 957.43974655 675.92139259 957.40898465 630.93924295 C957.38173202 590.94109847 957.36926217 550.9429779 957.37060547 510.94482422 C957.37068629 508.37640146 957.37076701 505.8079787 957.37084763 503.23955594 C957.37088833 501.96979973 957.37092903 500.70004352 957.37097096 499.39180985 C957.37117254 493.00055021 957.37135371 486.60929057 957.37151146 480.21803093 C957.37154489 478.95724032 957.37157831 477.6964497 957.37161275 476.39745331 C957.37234245 443.01215819 957.36327275 409.62686607 957.35085833 376.24157345 C957.35041779 375.05460061 957.34997724 373.86762777 957.34952335 372.64468606 C957.34774681 367.87119455 957.34597004 363.09770304 957.34414144 358.32421155 C957.33781275 341.69033783 957.33480179 325.05646647 957.33391846 308.42259162 C957.33272626 286.99248095 957.32477709 265.56239005 957.30505554 244.13228785 C957.29479717 232.78824565 957.29001622 221.44423248 957.29304791 210.10018587 C957.29451039 202.53614809 957.28875737 194.97213869 957.27696029 187.40811001 C957.27042412 183.08957468 957.26712684 178.77110045 957.27248149 174.45256208 C957.27727277 170.5316896 957.27302252 166.61093986 957.26124526 162.69008309 C957.25862341 161.27301003 957.25942275 159.85592593 957.26387847 158.43885744 C957.26940706 156.52819061 957.26161033 154.61749869 957.25299966 152.70684326 C957.25241667 151.64488624 957.25183367 150.58292923 957.251233 149.4887917 C957.24745185 146.82577663 957.24745185 146.82577663 955 145 C951.71365927 144.24713862 951.71365927 144.24713862 948 145 C945.26548744 146.98599256 943.18169766 149.43388352 941 152 C940.38552002 152.6911792 939.77104004 153.3823584 939.13793945 154.09448242 C937.40709397 156.04798019 935.70120266 158.02070071 934 160 C932.72916667 161.4375 931.45833333 162.875 930.1875 164.3125 C929.67574219 164.90675781 929.16398438 165.50101563 928.63671875 166.11328125 C926.62126228 168.43658787 924.56151538 170.71748465 922.5 173 C919.82951656 175.95869751 917.17701942 178.92926472 914.5625 181.9375 C910.91062947 186.13164365 907.15733816 190.23094292 903.41015625 194.33984375 C900.83006864 197.18755795 898.29798144 200.07244018 895.77734375 202.97265625 C893.70640513 205.33489173 891.60487152 207.66795853 889.5 210 C886.81016569 212.98062721 884.13689636 215.97245233 881.5 219 C876.62856797 224.58979989 871.6410485 230.07534898 866.671875 235.578125 C862.68295423 240.00121401 858.72432093 244.44615005 854.8125 248.9375 C851.9673071 252.1751333 849.07146164 255.3668629 846.18359375 258.56640625 C844.29151315 260.67511146 842.42094242 262.79919801 840.5625 264.9375 C836.91062947 269.13164365 833.15733816 273.23094292 829.41015625 277.33984375 C826.83006864 280.18755795 824.29798144 283.07244018 821.77734375 285.97265625 C819.70640513 288.33489173 817.60487152 290.66795853 815.5 293 C812.81016569 295.98062721 810.13689636 298.97245233 807.5 302 C804.10625985 305.89651647 800.64569997 309.73064945 797.18359375 313.56640625 C795.29151315 315.67511146 793.42094242 317.79919801 791.5625 319.9375 C787.91062947 324.13164365 784.15733816 328.23094292 780.41015625 332.33984375 C777.82761116 335.19027034 775.29344897 338.07825892 772.76953125 340.98046875 C768.46130252 345.89736556 764.05313844 350.72639032 759.671875 355.578125 C755.68295423 360.00121401 751.72432093 364.44615005 747.8125 368.9375 C744.96852205 372.17375077 742.07387299 375.36408668 739.1875 378.5625 C737.27445851 380.69417481 735.38112388 382.8401911 733.5 385 C728.62856797 390.58979989 723.6410485 396.07534898 718.671875 401.578125 C714.68295423 406.00121401 710.72432093 410.44615005 706.8125 414.9375 C703.96852205 418.17375077 701.07387299 421.36408668 698.1875 424.5625 C696.27445851 426.69417481 694.38112388 428.8401911 692.5 431 C687.62856797 436.58979989 682.6410485 442.07534898 677.671875 447.578125 C673.68295423 452.00121401 669.72432093 456.44615005 665.8125 460.9375 C662.9673071 464.1751333 660.07146164 467.3668629 657.18359375 470.56640625 C655.29151315 472.67511146 653.42094242 474.79919801 651.5625 476.9375 C647.12280934 482.03069652 642.59334849 487.04503111 638 492 C637.32195313 492.75667969 636.64390625 493.51335937 635.9453125 494.29296875 C633.45828732 496.47535831 631.34102209 496.51928951 628.09765625 496.62890625 C624.96729385 495.69038046 623.22002949 493.29447882 621 491 C619.90150398 489.90228211 618.80060885 488.80696154 617.69775391 487.71362305 C614.38363131 484.41739817 611.07264202 481.11804479 607.76269531 477.81762695 C606.34204706 476.40200841 604.9205027 474.98728856 603.49804688 473.57348633 C601.42596386 471.51364569 599.35722771 469.45049212 597.2890625 467.38671875 C596.34965317 466.45505135 596.34965317 466.45505135 595.39126587 465.50456238 C591.6587968 461.77256008 588.14640734 457.91214567 584.69564819 453.91926575 C582.13506769 451.02100273 579.41126199 448.3058289 576.65625 445.59375 C576.08346313 445.02474976 575.51067627 444.45574951 574.92053223 443.86950684 C573.11614749 442.07717018 571.3085264 440.28815684 569.5 438.5 C556.18395237 425.33393199 556.18395237 425.33393199 552.53125 421.03125 C547.10238199 414.64474317 540.95438631 408.88989837 535 403 C521.09374101 389.24435032 521.09374101 389.24435032 515.87890625 383.1015625 C511.17130076 377.83609108 506.02196684 372.96304991 501 368 C487.9515219 355.1046046 487.9515219 355.1046046 482.62353516 348.84179688 C478.83745977 344.54673632 474.62848101 340.63322413 470.52148438 336.6484375 C469.83763672 335.97554688 469.15378906 335.30265625 468.44921875 334.609375 C467.52629028 333.7117041 467.52629028 333.7117041 466.5847168 332.79589844 C464.18275211 330.07384448 463.12601167 327.78346387 462.55078125 324.20703125 C463.18469282 319.68145384 465.3666382 317.18387136 468.1875 313.6875 C468.72705322 312.99454834 469.26660645 312.30159668 469.82250977 311.58764648 C470.96405443 310.12215663 472.11124646 308.66105057 473.26367188 307.20410156 C475.48547627 304.38373457 477.65984322 301.52886476 479.83325195 298.67114258 C481.45559174 296.53872 483.08423869 294.41126375 484.71484375 292.28515625 C487.98044105 288.02639838 491.24061785 283.76351539 494.5 279.5 C495.57160875 278.09895387 496.64322335 276.69791222 497.71484375 275.296875 C500.00022649 272.30845648 502.28379561 269.31866137 504.56640625 266.328125 C505.15164063 265.56177734 505.736875 264.79542969 506.33984375 264.00585938 C507.4561928 262.54397372 508.57210578 261.08175492 509.6875 259.61914062 C511.12075304 257.74278263 512.55909341 255.8704838 514 254 C514.74121094 253.03578125 515.48242188 252.0715625 516.24609375 251.078125 C518.75988872 248.09964187 519.71715439 248.03355795 523.6875 247.5625 C528.09675784 247.63413054 530.18588581 249.16999803 533.29296875 252.171875 C535.62676056 254.67122184 537.90759537 257.20121688 540.125 259.8046875 C542.16943017 262.19837449 544.26552692 264.53846558 546.375 266.875 C547.13554688 267.71804688 547.89609375 268.56109375 548.6796875 269.4296875 C549.44539062 270.27789062 550.21109375 271.12609375 551 272 C552.50028679 273.66640851 554.00028872 275.33307353 555.5 277 C556.2425 277.825 556.985 278.65 557.75 279.5 C582.5 307 582.5 307 584.7421875 309.4921875 C586.26708244 311.18592894 587.79315402 312.87861169 589.3203125 314.5703125 C592.69912708 318.31564256 596.06895965 322.06518207 599.375 325.875 C602.82233724 329.83542929 606.375249 333.69668027 609.93505859 337.55566406 C613.22521046 341.12978398 616.42964558 344.76413001 619.5625 348.4765625 C621.12194583 350.24342292 621.12194583 350.24342292 624 352 C628.11556962 351.92378575 630.28782994 351.63008553 633.40625 348.87109375 C636.2196087 345.75690904 638.68677107 342.53432742 641.125 339.125 C642.09881971 337.77984755 643.07278194 336.43479827 644.046875 335.08984375 C644.53865234 334.40776855 645.03042969 333.72569336 645.53710938 333.02294922 C647.35650984 330.50700259 649.19549212 328.00586113 651.03637695 325.50561523 C655.54233503 319.38563169 659.99876016 313.23136198 664.4375 307.0625 C669.04187158 300.66648339 673.72518535 294.33766453 678.47363281 288.0480957 C682.84949861 282.23689406 687.10457226 276.34236956 691.35107422 270.4362793 C695.09526886 265.23488153 698.90448089 260.09187386 702.765625 254.9765625 C706.75592356 249.66081511 710.66904162 244.28830419 714.59277344 238.92333984 C716.89245628 235.78022718 719.19646466 232.64028962 721.5 229.5 C721.95503906 228.87931641 722.41007813 228.25863281 722.87890625 227.61914062 C725.14381144 224.52975862 727.41016262 221.44145893 729.6796875 218.35546875 C734.58913489 211.67626419 739.46719838 204.97590479 744.3125 198.25 C750.55777485 189.58441424 756.88599835 180.98170027 763.23388672 172.39111328 C766.15956094 168.43008849 769.07957278 164.46489406 772 160.5 C775.50888924 155.73618529 779.01897803 150.97328202 782.53515625 146.21484375 C788.27423482 138.44400126 793.98429619 130.65511304 799.625 122.8125 C804.16995877 116.49363171 808.79681273 110.24459167 813.48535156 104.03173828 C817.73730414 98.38335203 821.87814346 92.65903126 826.00610352 86.91967773 C831.68556315 79.03008877 837.45674297 71.20931251 843.23388672 63.39111328 C846.74034172 58.64377844 850.23951234 53.89106952 853.73876953 49.13842773 C856.71208904 45.10106495 859.68988664 41.06713626 862.67578125 37.0390625 C865.60462164 33.08579166 868.52141529 29.123988 871.42529297 25.15234375 C872.44232045 23.76224851 873.46199346 22.37408318 874.48486328 20.98828125 C875.7940077 19.20912877 877.08703695 17.41951826 878.375 15.625 C879.43847656 14.15933594 879.43847656 14.15933594 880.5234375 12.6640625 C882.14625885 9.73611499 882.66933335 8.28083068 882 5 C878.78876343 1.841332 876.32501803 1.62477728 871.9153685 1.62395251 C870.6572082 1.61644195 869.3990479 1.6089314 868.10276154 1.60119325 C866.7011202 1.60802397 865.29948017 1.61512856 863.89784145 1.62247658 C862.40695092 1.61934856 860.91606265 1.61490584 859.42517951 1.60926348 C855.3042324 1.59752304 851.1834946 1.60460144 847.06255069 1.61459734 C842.58844015 1.62217668 838.11436283 1.61243997 833.64025694 1.60486734 C825.79088285 1.59400577 817.94157059 1.59437717 810.0921936 1.60200882 C798.42022529 1.61332636 786.74830942 1.60757068 775.07634149 1.5983839 C754.2341231 1.58256088 733.39193223 1.58396606 712.5497112 1.59262064 C694.31133672 1.60015713 676.07297235 1.60214216 657.83459663 1.5985527 C656.62641257 1.59832355 655.41822852 1.59809439 654.17343282 1.59785829 C649.26945374 1.59692433 644.36547467 1.59596914 639.46149561 1.594979 C593.42734112 1.58579513 547.39320421 1.59413338 501.35905243 1.61026969 C460.42775406 1.62450817 419.49648368 1.62323266 378.56518555 1.60888672 C332.61555968 1.59283588 286.66594934 1.58644545 240.71632105 1.59572351 C235.8214099 1.59668571 230.92649875 1.59762423 226.0315876 1.5985527 C224.22360918 1.59890855 224.22360918 1.59890855 222.37910594 1.59927159 C204.14799099 1.60268932 185.91688725 1.59868333 167.68577385 1.59111404 C146.96463506 1.58255401 126.24352819 1.58464278 105.5223934 1.60095628 C93.91415367 1.6097929 82.305983 1.61030034 70.697745 1.59901775 C62.95632561 1.59232093 55.21496191 1.59642196 47.47355082 1.60953206 C43.05450051 1.61670933 38.63558801 1.61902443 34.21654176 1.60831411 C30.20327135 1.59868582 26.19026211 1.60264845 22.17701106 1.61785609 C20.72762817 1.62089916 19.27822407 1.61882325 17.82885783 1.61123828 C15.87235123 1.60171896 13.91577709 1.61224998 11.95928234 1.62395251 C10.32914544 1.62425742 10.32914544 1.62425742 8.66607648 1.6245685 C6.03019547 1.820289 6.03019547 1.820289 4.15090399 3.10208418 C2.40471689 5.98166072 2.62559365 8.39249781 2.62625384 11.74270058 C2.62229535 12.4364229 2.61833686 13.13014523 2.61425842 13.84488944 C2.60458073 16.19160509 2.616455 18.53772977 2.6280632 20.88442993 C2.62554277 22.58221634 2.62170619 24.28000122 2.61666584 25.97778201 C2.60657801 30.67784354 2.61535206 35.37771532 2.62700006 40.07776639 C2.63636612 45.17790771 2.62841384 50.2780256 2.62260175 55.37816811 C2.61482218 64.32826634 2.61826248 73.27830672 2.62892532 82.22840118 C2.64473725 95.53713568 2.64345454 108.8458296 2.63863304 122.15457064 C2.6310318 144.53980443 2.6375466 166.92501398 2.65224457 189.3102417 C2.66677523 211.48574004 2.67555099 233.66122769 2.67642975 255.83673096 C2.67649138 257.22803106 2.67655309 258.61933117 2.67661488 260.01063128 C2.67685059 265.60134924 2.67703641 271.19206719 2.67716302 276.78278515 C2.67752482 292.4122479 2.67887303 308.04171048 2.68092728 323.6711731 C2.68102027 324.38296842 2.68111325 325.09476374 2.68120906 325.82812862 C2.68582913 360.46680282 2.7019936 395.10547055 2.71875 429.74414062 C2.74205197 477.91471473 2.75621793 526.08527968 2.75976562 574.25585938 C2.75987801 575.75469554 2.75999066 577.25353171 2.76010355 578.75236788 C2.76049701 583.98812493 2.76088418 589.22388198 2.76127068 594.45963903 C2.76160077 598.93100105 2.76193265 603.40236306 2.76226654 607.87372508 C2.762432 610.10313485 2.76259414 612.33254462 2.76275616 614.56195439 C2.76618429 661.17697962 2.77734143 707.79200323 2.78999937 754.40702676 C2.79394394 768.96371611 2.79744258 783.52040534 2.79981136 798.07709503 C2.80460804 827.24166903 2.81167389 856.40623737 2.82795903 885.57080793 C2.83462382 897.63773906 2.83975849 909.70466572 2.84041977 921.77159882 C2.84096972 931.76843993 2.84478832 941.76527243 2.85319569 951.76211017 C2.85733675 956.80117407 2.85986848 961.84022523 2.85808048 966.87929082 C2.85649437 971.45511814 2.85943674 976.03091837 2.86613604 980.60674086 C2.86774124 982.25980074 2.86764052 983.91286329 2.86570877 985.56592283 C2.86334295 987.79641482 2.86704185 990.02681449 2.8723495 992.25729942 C2.87286474 993.49651819 2.87337998 994.73573695 2.87391083 996.0125078 C2.86462973 999.05379296 2.86462973 999.05379296 4 1002 C4.66 1002.33 5.32 1002.66 6 1003 C4.02 1003 2.04 1003 0 1003 C0 672.01 0 341.02 0 0 Z " fill="#FDFEFC" transform="translate(0,0)"/>
<path d="M0 0 C0.78868469 -0.00067474 1.57736938 -0.00134949 2.38995361 -0.00204468 C55.88776369 0.07010933 115.39088837 16.2412761 155.01953125 54.18359375 C156.63136963 57.58065552 156.00403408 59.67056252 155 63.25 C153.31409069 66.10788465 151.28682162 68.62362346 149.1875 71.1875 C147.99005457 72.69986337 146.7934582 74.21289933 145.59765625 75.7265625 C144.99195801 76.48485352 144.38625977 77.24314453 143.76220703 78.02441406 C141.15105313 81.32218061 138.63633172 84.68848726 136.125 88.0625 C135.14982177 89.36334286 134.17455909 90.66412243 133.19921875 91.96484375 C130.79536838 95.17839602 128.40613031 98.40252514 126.01953125 101.62890625 C125.00318604 102.99728638 125.00318604 102.99728638 123.96630859 104.39331055 C122.63580092 106.18477268 121.30916152 107.97911567 119.98681641 109.77661133 C119.38144043 110.59025146 118.77606445 111.4038916 118.15234375 112.2421875 C117.61601318 112.96776855 117.07968262 113.69334961 116.52709961 114.44091797 C113.95477752 117.48822519 112.03850694 118.24254704 108.125 119 C102.60325295 118.8757163 99.47596363 115.9166162 95.35083008 112.51513672 C63.14444869 86.102326 15.4547996 74.56644306 -25.44677734 78.484375 C-39.38341253 80.40101698 -53.74551584 85.77935498 -62.68359375 97.1875 C-67.90583081 105.36952126 -70.42448353 113.56082432 -69 123.25 C-66.53786944 132.41781556 -60.49767505 138.96531232 -52.5625 143.875 C-32.45184332 154.82193381 -9.07777425 159.3865583 13.04223633 164.40942383 C23.37754669 166.79196336 33.59875125 169.51830353 43.8125 172.375 C44.55005524 172.58105865 45.28761047 172.78711731 46.04751587 172.99942017 C51.03728224 174.39690644 56.02045675 175.81654197 61 177.25 C61.76004333 177.46840546 62.52008667 177.68681091 63.30316162 177.91183472 C65.6028909 178.57439992 67.90127301 179.24143403 70.19921875 179.91015625 C70.89344437 180.11041412 71.58766998 180.310672 72.30293274 180.51699829 C78.42834417 182.31111923 84.19789517 184.60874333 90 187.25 C90.94262695 187.66523926 90.94262695 187.66523926 91.90429688 188.08886719 C107.37781091 194.91107905 121.19177804 203.17554751 134 214.25 C134.60714844 214.71277344 135.21429688 215.17554688 135.83984375 215.65234375 C154.67310424 230.23150305 164.48298472 255.282163 167.5 278.140625 C169.01794227 291.85555406 168.53782993 305.69863892 166 319.25 C165.84015625 320.37535156 165.6803125 321.50070312 165.515625 322.66015625 C160.84673005 351.65147018 143.19504566 378.64688874 119.53515625 395.80859375 C110.83641703 401.90615434 101.68297981 406.90402409 92 411.25 C91.31099609 411.56066406 90.62199219 411.87132812 89.91210938 412.19140625 C65.34638663 423.03389514 36.49054017 427.39046749 9.73828125 427.41796875 C8.5894194 427.42129715 7.44055756 427.42462555 6.25688171 427.42805481 C3.83735552 427.43309201 1.41782245 427.43546413 -1.00170898 427.43530273 C-4.6594619 427.43748329 -8.31690988 427.45565756 -11.97460938 427.47460938 C-28.6711594 427.51503617 -43.75974255 426.24109385 -60 422.25 C-61.38872092 421.93354443 -62.77808121 421.61988549 -64.16796875 421.30859375 C-96.58377519 414.00408235 -127.99504375 398.98019207 -154 378.25 C-155.00160156 377.46367188 -156.00320312 376.67734375 -157.03515625 375.8671875 C-168.52331842 366.69482087 -168.52331842 366.69482087 -169.63671875 360.984375 C-168.73602241 355.70176336 -166.10433609 352.62650104 -162.8125 348.5 C-161.51522235 346.81220268 -160.2210276 345.12203198 -158.9296875 343.4296875 C-158.2706543 342.57084961 -157.61162109 341.71201172 -156.93261719 340.82714844 C-153.95521036 336.85677117 -151.19888373 332.74710252 -148.4375 328.625 C-144.09869503 322.20671252 -139.62234167 315.92086152 -134.9375 309.75 C-134.40116943 309.03763184 -133.86483887 308.32526367 -133.31225586 307.59130859 C-127.97426321 300.64436158 -127.97426321 300.64436158 -125 299.25 C-118.89735471 299.20009519 -115.73148693 301.65701179 -111.5 305.6875 C-95.63572782 319.98753872 -76.69063356 330.21773941 -57 338.25 C-55.65808594 338.81654297 -55.65808594 338.81654297 -54.2890625 339.39453125 C-44.90931049 343.1079662 -34.8547776 345.19238964 -25 347.25 C-24.08081787 347.44198975 -23.16163574 347.63397949 -22.21459961 347.83178711 C-13.95867026 349.3882385 -5.82050078 349.60659172 2.5625 349.5625 C3.26388092 349.56100952 3.96526184 349.55951904 4.68789673 349.5579834 C16.00751364 349.51482976 26.94949879 348.82977324 38 346.25 C39.16789063 345.99476563 40.33578125 345.73953125 41.5390625 345.4765625 C54.04404268 342.22347696 65.48340977 334.82756312 73 324.25 C73.52464844 323.5384375 74.04929687 322.826875 74.58984375 322.09375 C77.97895473 316.61108847 78.47513239 311.42510418 78.5625 305.125 C78.57732422 304.3729126 78.59214844 303.6208252 78.60742188 302.84594727 C78.46722382 295.22768507 75.31021767 288.69996024 70 283.25 C56.82682413 272.34715104 40.85566825 267.62656886 24.71435547 263.02587891 C22.388585 262.36107421 20.07045713 261.67649794 17.75390625 260.98046875 C6.74844592 257.73557924 -4.44527023 255.30453218 -15.63421631 252.79092407 C-27.89340433 250.03109287 -39.98106534 246.93053393 -52 243.25 C-53.29009144 242.86496903 -54.58044145 242.48080297 -55.87109375 242.09765625 C-88.74018497 232.21081269 -124.65243969 215.9575718 -143 185.25 C-143.5252124 184.40937012 -143.5252124 184.40937012 -144.06103516 183.55175781 C-158.87552283 159.55317147 -162.23407523 128.72164994 -156.3605957 101.26049805 C-155.65420502 98.56022549 -154.84355558 95.91044453 -154 93.25 C-153.74605469 92.34121094 -153.49210937 91.43242188 -153.23046875 90.49609375 C-143.78131093 58.78316682 -119.29372701 35.39850056 -91.02587891 19.80078125 C-82.67660496 15.37033898 -73.98948229 12.12476153 -65 9.25 C-64.2471875 9.00910645 -63.494375 8.76821289 -62.71875 8.52001953 C-42.2374009 2.1151532 -21.3856903 0.01654067 0 0 Z " fill="#FEFEFD" transform="translate(266,465.75)"/>
<path d="M0 0 C0.80367004 -0.0033284 1.60734009 -0.0066568 2.43536377 -0.01008606 C4.12617425 -0.01511738 5.81699454 -0.01749557 7.5078125 -0.01733398 C10.05746332 -0.01951359 12.60667583 -0.03769109 15.15625 -0.05664062 C24.09312369 -0.08749616 32.55032043 0.28968244 41.328125 2.16796875 C42.51664063 2.379375 43.70515625 2.59078125 44.9296875 2.80859375 C81.88205317 10.25635737 115.42942817 31.20946785 136.48046875 62.7265625 C155.21138747 91.61318097 165.0699464 124.75308363 166.328125 159.16796875 C166.36067383 160.0280957 166.39322266 160.88822266 166.42675781 161.77441406 C166.52554139 164.73891932 166.58786466 167.70230779 166.640625 170.66796875 C166.67051514 171.62493652 166.70040527 172.5819043 166.73120117 173.56787109 C166.76736298 177.95783652 166.76841016 180.44898763 164.43359375 184.26171875 C160.47683212 187.84409292 156.79293897 187.32035183 151.69760132 187.32618713 C150.7934274 187.33112511 149.88925348 187.33606309 148.95768034 187.3411507 C145.90977711 187.35658212 142.86189502 187.36490155 139.81396484 187.37329102 C137.63635571 187.38286511 135.45874846 187.3928749 133.28114319 187.40328979 C127.35377667 187.43039574 121.42640215 187.45137444 115.4990077 187.47129178 C109.31032815 187.49311632 103.12167345 187.52052225 96.93301392 187.54734802 C85.87418183 187.59447881 74.81533869 187.63735567 63.75648101 187.67800312 C49.74231748 187.7295759 35.72818093 187.78686454 21.71404338 187.84504998 C-5.74790618 187.95894344 -33.20987962 188.06576639 -60.671875 188.16796875 C-57.87402047 209.06235261 -47.38355208 226.31688501 -31.671875 240.16796875 C-28.13841987 242.76758217 -24.48998834 245.01302779 -20.671875 247.16796875 C-19.89457031 247.62945313 -19.11726562 248.0909375 -18.31640625 248.56640625 C-11.83480925 252.14919856 -5.08212012 253.74802651 2.08203125 255.37109375 C5.328125 256.16796875 5.328125 256.16796875 6.328125 257.16796875 C38.50287334 259.57475326 74.41274749 253.81488743 100.328125 233.10546875 C103.328125 231.16796875 103.328125 231.16796875 106.953125 231.04296875 C114.88755359 233.68777828 118.73523668 242.00451546 123.078125 248.66796875 C129.18954563 258.00519761 129.18954563 258.00519761 135.66503906 267.08959961 C140.86278807 274.14321995 140.86278807 274.14321995 141.328125 278.60546875 C139.27548431 285.91800121 131.1702298 289.7912911 124.953125 293.54296875 C123.77411621 294.2551355 123.77411621 294.2551355 122.57128906 294.98168945 C114.73476339 299.63511694 106.73493349 303.6533689 98.328125 307.16796875 C97.52487793 307.50425293 96.72163086 307.84053711 95.89404297 308.18701172 C74.19900694 317.07116862 51.03615424 322.30792568 27.5625 322.3359375 C26.56663879 322.3392659 25.57077759 322.3425943 24.54473877 322.34602356 C22.45056617 322.35105398 20.35638566 322.3534331 18.26220703 322.35327148 C15.10044799 322.35545335 11.93904109 322.37363844 8.77734375 322.39257812 C-5.51908329 322.4338987 -18.9269557 321.64666464 -32.734375 317.60546875 C-33.61504639 317.34862305 -34.49571777 317.09177734 -35.40307617 316.82714844 C-74.45367637 304.98418908 -107.83061462 279.09973118 -127.58251953 243.17041016 C-141.50775202 216.96536346 -146.86000248 190.82072426 -146.85717773 161.29370117 C-146.85936859 158.73794996 -146.87761154 156.18262878 -146.89648438 153.62695312 C-147.04573014 111.07878774 -129.28645345 73.19751566 -99.671875 43.16796875 C-73.97939518 17.75738134 -36.32072939 0.05372889 0 0 Z " fill="#FDFEFD" transform="translate(621.671875,570.83203125)"/>
<path d="M0 0 C13.6795514 10.77613641 24.09821027 25.2314151 26.93359375 42.76171875 C27.0215253 44.51000481 27.06383473 46.26123063 27.05859375 48.01171875 C27.06117188 48.883125 27.06375 49.75453125 27.06640625 50.65234375 C26.93359375 52.76171875 26.93359375 52.76171875 25.93359375 53.76171875 C24.02495326 53.86049445 22.1126106 53.88804082 20.20141602 53.88870239 C18.33357956 53.89293213 18.33357956 53.89293213 16.42800903 53.89724731 C15.03533921 53.89530272 13.64266953 53.89325453 12.25 53.89111328 C10.79336503 53.89246728 9.33673041 53.8942472 7.88009644 53.89642334 C3.91326439 53.90099787 -0.05354177 53.89920803 -4.0203743 53.89604425 C-8.16259076 53.89352075 -12.30480494 53.89585816 -16.44702148 53.89743042 C-23.4044637 53.89925215 -30.36189533 53.89684573 -37.31933594 53.89208984 C-45.37468153 53.88664722 -53.43000182 53.88840987 -61.48534679 53.89391625 C-68.38893698 53.8984473 -75.29251953 53.89909797 -82.19611073 53.89647758 C-86.32482633 53.89491476 -90.45353002 53.89472118 -94.58224487 53.89801407 C-98.46290147 53.90089266 -102.34352528 53.89891732 -106.22417831 53.89311981 C-107.65248434 53.89179215 -109.0807931 53.89218644 -110.50909805 53.89438248 C-112.45080724 53.8970937 -114.39252242 53.89309941 -116.33422852 53.88870239 C-117.4234108 53.88832537 -118.51259308 53.88794834 -119.63478088 53.88755989 C-122.06640625 53.76171875 -122.06640625 53.76171875 -123.06640625 52.76171875 C-124.58021417 38.12824215 -116.70488532 24.03660612 -107.83203125 12.9765625 C-105.65122217 10.48367212 -103.40604883 8.105517 -101.06640625 5.76171875 C-100.45410156 5.1378125 -99.84179688 4.51390625 -99.2109375 3.87109375 C-72.60505848 -21.31656144 -28.67638632 -20.93193549 0 0 Z " fill="#44B02B" transform="translate(682.06640625,649.23828125)"/>
<path d="M0 0 C1.65 0 3.3 0 5 0 C4.67514692 0.51837021 4.35029384 1.03674041 4.01559673 1.57081881 C2.6736652 4.78055231 2.75020456 7.38684368 2.75045234 10.86689907 C2.74643173 11.90939969 2.74643173 11.90939969 2.74232991 12.97296092 C2.7357517 15.31788967 2.74350587 17.66255516 2.75111103 20.00747776 C2.74932924 21.70642839 2.74667026 23.40537829 2.74321017 25.10432634 C2.73621336 29.80292427 2.74177348 34.50143846 2.74926625 39.20003258 C2.75521532 44.30036267 2.74961296 49.40068175 2.74544543 54.50101179 C2.73974645 63.44988551 2.74152597 72.39873391 2.7481308 81.34760666 C2.75792518 94.65451597 2.75632206 107.96140665 2.7523805 121.2683181 C2.74609618 143.65087342 2.74926531 166.03341839 2.75797462 188.41597176 C2.76658653 210.58785155 2.77150651 232.75972665 2.77130699 254.9316082 C2.77129907 256.32283887 2.77129135 257.71406955 2.77128382 259.10530022 C2.77124645 264.69576686 2.77118003 270.2862335 2.77107801 275.87670014 C2.77080036 291.50523775 2.77118918 307.13377531 2.77206707 322.76231289 C2.77210674 323.47405489 2.77214641 324.1857969 2.77218729 324.91910684 C2.77349563 347.6052749 2.77766829 370.29144147 2.78392506 392.97760868 C2.784128 393.71363921 2.78433093 394.44966973 2.78454002 395.20800422 C2.78784894 407.1614267 2.79134416 419.11484912 2.79484874 431.06827154 C2.80873858 478.4824458 2.81538184 525.89661472 2.81469727 573.31079102 C2.81467688 574.80949433 2.81465666 576.30819765 2.81463663 577.80690096 C2.81459644 580.8007313 2.81455567 583.79456163 2.81451452 586.78839197 C2.8144231 593.5008368 2.81433875 600.21328163 2.81426793 606.92572646 C2.81425216 608.41235706 2.81423572 609.89898766 2.8142186 611.38561825 C2.81377356 651.07763207 2.81823896 690.76964515 2.82457083 730.46165842 C2.82468101 731.15438123 2.82479118 731.84710403 2.82490469 732.56081844 C2.82640015 741.96342711 2.82640015 741.96342711 2.82792928 751.36603577 C2.83042659 766.61403272 2.83236635 781.86202943 2.83274293 797.1100266 C2.83276046 797.79777675 2.83277799 798.48552691 2.83279605 799.19411798 C2.83286526 801.9660579 2.83293051 804.73799783 2.83299353 807.50993775 C2.83357897 833.20340079 2.83734021 858.89685963 2.84747223 884.59032113 C2.8526006 897.82488562 2.85499216 911.05944389 2.85347604 924.29400932 C2.85274462 933.119487 2.85562275 941.9449586 2.86151985 950.77043433 C2.86478683 955.8086169 2.86643778 960.84678638 2.86375926 965.8849696 C2.86136215 970.45998368 2.86349222 975.03497147 2.86937737 979.60998219 C2.87068737 981.26274594 2.87029024 982.91551206 2.86806076 984.56827482 C2.86529263 986.79836558 2.86859195 989.02836502 2.87350017 991.25845009 C2.87379167 992.49744511 2.87408317 993.73644014 2.8743835 995.01298046 C2.864576 998.05387413 2.864576 998.05387413 4 1001 C4.66 1001.33 5.32 1001.66 6 1002 C4.02 1002 2.04 1002 0 1002 C0 671.34 0 340.68 0 0 Z " fill="#DBF0D6" transform="translate(0,1)"/>
<path d="M0 0 C0.66 0.33 1.32 0.66 2 1 C-4.6 7.6 -11.2 14.2 -18 21 C-18 15.49024931 -12.69527879 11.76941247 -9 8 C-6.39747571 5.58398995 -3.72631653 3.27424874 -1 1 C-0.67 0.67 -0.34 0.34 0 0 Z " fill="#E8F5E5" transform="translate(151,501)"/>
<path d="M0 0 C1.5 1.375 1.5 1.375 3 3 C3 3.66 3 4.32 3 5 C3.66 5.33 4.32 5.66 5 6 C3.02 6 1.04 6 -1 6 C-0.67 4.02 -0.34 2.04 0 0 Z " fill="#EFF8ED" transform="translate(1,997)"/>
<path d="M0 0 C0 1.32 0 2.64 0 4 C-2.31 4 -4.62 4 -7 4 C-3.375 0 -3.375 0 0 0 Z " fill="#E6F4E3" transform="translate(960,999)"/>
</svg>
